<svg width="50" height="40" viewBox="0 0 39.6488 31.7196" fill="none" xmlns="http://www.w3.org/2000/svg">
  <path d="M22.3324 0C22.3701 0.000381528 22.4072 0.00924913 22.4409 0.0259335C22.4746 0.0426179 22.5041 0.066683 22.5271 0.0963127C22.55 0.125942 22.5659 0.160362 22.5735 0.196974C22.5811 0.233587 22.5803 0.271435 22.571 0.307662L18.2264 16.3872C17.5101 19.0398 15.9316 21.3838 13.7359 23.0556C11.5401 24.7275 8.84974 25.6338 6.08196 25.634H0.258507C0.219379 25.6361 0.180317 25.6288 0.144589 25.6128C0.108862 25.5969 0.077508 25.5727 0.0531521 25.5422C0.0287962 25.5117 0.0121467 25.4759 0.00459698 25.4378C-0.00295276 25.3996 -0.0011831 25.3603 0.00975785 25.3229L0.541331 23.3552C0.555492 23.3031 0.586489 23.257 0.629572 23.2241C0.672655 23.1911 0.725447 23.173 0.779858 23.1727H2.44954C4.56498 23.1756 6.62215 22.4851 8.30132 21.2086C9.98049 19.932 11.1876 18.1408 11.735 16.1134L15.3436 2.80276C15.3529 2.76609 15.3537 2.7278 15.3459 2.69078C15.3381 2.65376 15.3219 2.61898 15.2987 2.58904C15.2754 2.5591 15.2455 2.53479 15.2114 2.51794C15.1773 2.50108 15.1398 2.49212 15.1017 2.49172H6.5079C6.47001 2.49201 6.43255 2.48358 6.39849 2.4671C6.36442 2.45062 6.33467 2.42653 6.31156 2.39672C6.28845 2.36692 6.27261 2.3322 6.2653 2.29531C6.25798 2.25841 6.25938 2.22033 6.26938 2.18406L6.8248 0.182568C6.83897 0.130442 6.86996 0.0843595 6.91305 0.0513839C6.95613 0.0184082 7.00892 0.000358294 7.06333 0L22.3324 0Z" fill="#191919"/>
  <path d="M39.6426 6.42371L39.1145 8.37111C39.0993 8.42948 39.0649 8.48113 39.0167 8.51788C38.9686 8.55463 38.9094 8.57437 38.8487 8.57397H30.0709C30.01 8.57296 29.9506 8.59247 29.9023 8.62932C29.854 8.66616 29.8198 8.71816 29.8051 8.77682L27.7606 16.3703L26.0568 22.6892C25.8467 23.4621 25.8185 24.2725 25.9746 25.0579C26.1308 25.8432 26.4669 26.5824 26.9572 27.2181C27.4474 27.8539 28.0785 28.3692 28.8016 28.7242C29.5247 29.0791 30.3205 29.2642 31.1272 29.2651H33.1172C33.1588 29.2655 33.1997 29.2751 33.2369 29.2934C33.2742 29.3116 33.3068 29.338 33.3323 29.3705C33.3579 29.403 33.3757 29.4408 33.3845 29.4811C33.3933 29.5214 33.3928 29.5631 33.383 29.6032L32.8651 31.5202C32.8492 31.5779 32.8146 31.6288 32.7665 31.6649C32.7184 31.701 32.6596 31.7202 32.5993 31.7196H27.4437C26.2167 31.7195 25.0062 31.4394 23.9058 30.901C22.8053 30.3626 21.8444 29.5803 21.0974 28.6146C20.3503 27.6488 19.8372 26.5256 19.5975 25.3316C19.3579 24.1377 19.3982 22.9051 19.7154 21.7291L20.4958 18.8384L23.8828 6.29186C23.8987 6.23412 23.9333 6.18323 23.9814 6.14713C24.0295 6.11104 24.0883 6.09178 24.1486 6.09239H39.3768C39.4177 6.09298 39.4578 6.10256 39.4945 6.12042C39.5311 6.13827 39.5633 6.16398 39.5887 6.19567C39.6142 6.22736 39.6322 6.26425 39.6415 6.30368C39.6508 6.34312 39.6512 6.38411 39.6426 6.42371Z" fill="#191919"/>
</svg>
