<svg xmlns="http://www.w3.org/2000/svg" viewBox="0 0 250.69 250.69"><defs><style>.cls-1{fill:#fff;}.cls-2{fill:#191919;}</style></defs><g id="Capa_2" data-name="Capa 2"><g id="Capa_1-2" data-name="Capa 1"><rect class="cls-1" width="250.69" height="250.69" rx="11.45"/><path class="cls-2" d="M132.68,78.43a.72.72,0,0,1,.7.91L120.64,126.9A36.89,36.89,0,0,1,85,154.24H67.9a.73.73,0,0,1-.7-.91l1.57-5.82a.72.72,0,0,1,.7-.54h4.9a28.18,28.18,0,0,0,27.22-20.89l10.55-39.37a.72.72,0,0,0-.7-.91H86.25a.72.72,0,0,1-.7-.91L87.13,79a.72.72,0,0,1,.7-.53Z"/><path class="cls-2" d="M183.48,97.46l-1.54,5.76a.82.82,0,0,1-.78.6H155.39a.79.79,0,0,0-.77.59l-6,22.47-5,18.68A15.44,15.44,0,0,0,158.49,165h5.85a.8.8,0,0,1,.77,1l-1.51,5.67a.8.8,0,0,1-.78.59H147.68A23.48,23.48,0,0,1,125,142.7l2.28-8.55,10-37.11a.8.8,0,0,1,.78-.6h44.69A.8.8,0,0,1,183.48,97.46Z"/></g></g></svg>